<?xml version="1.0" encoding="UTF-8"?>
<svg id="Layer_1" data-name="Layer 1" xmlns="http://www.w3.org/2000/svg" viewBox="0 0 1200 259.27">
  <g>
    <path d="M444.13,168.58V23.5h-29.52v77.9c-15.86-14.96-35.05-22.93-57.17-23.73-24.85-.9-46.63,7.89-64.6,26.16-17.94,17.96-27.03,39.84-27.03,65.03s8.38,45.48,24.93,62.93c16.66,17.58,37.36,26.8,61.47,27.42,1.15.03,2.28.05,3.43.05,23.16,0,43.92-8.71,61.7-25.91,18.37-18.09,27.39-39.9,26.78-64.78ZM396.47,211.94l-.05.03c-11.94,12.76-26.21,18.55-43.64,17.71-16.17-.54-29.47-6.79-40.69-19.12-11.2-12.3-16.76-26.88-16.48-43.36.28-16.89,6.1-30.8,17.81-42.48,11.63-11.63,25.52-17.53,41.36-17.53h1.05c16.14,0,29.42,5.71,40.61,17.45,11.56,12.12,17.32,25.96,17.58,42.33.56,17.32-5.2,32.03-17.55,44.97Z"/>
    <path d="M650.86,163.33c0-21.58-8.28-41.28-24.65-58.58-16.83-17.4-37.08-27.01-60.19-28.54h-.03c-25.47-1.49-48.12,7.3-67.26,26.16-18.78,18.45-27.98,40.95-27.37,66.85.31,24.21,9.69,45.61,27.96,63.57,17.76,17.14,38.54,25.83,61.8,25.83h1.2c19.06-.31,35.87-5.77,51.38-16.71,13.91-9.81,24.24-22.91,30.83-39.02h-33.21c-10.89,17.19-26.75,25.67-48.22,25.91-15.71.33-29.29-4.66-41.41-15.07-10.53-9.07-17.01-20.68-19.37-34.62h148.54v-15.78ZM502.78,151.06c3.48-13.04,10.04-23.32,19.99-31.31,11.38-9.17,24.7-13.66,39.43-13.43,15.04.28,28.03,4.97,38.67,13.94,9.48,8.02,15.99,18.37,19.42,30.8h-117.51Z"/>
    <path d="M827.94,104.78c-16.76-17.65-37.64-27.06-62.06-27.98-1.18-.05-2.36-.05-3.51-.05-23.78,0-44.43,8.69-61.37,25.93-17.94,17.94-27.03,39.82-27.03,65.03s8.48,45.28,25.21,62.93c16.55,17.45,37.13,26.78,61.19,27.7,1.1.03,2.18.05,3.28.05,22.73,0,42.69-8.07,59.4-24.03v20.19h29.24v-86.99c.92-23.98-7.28-45.1-24.34-62.78ZM804.63,211.07h-.03c-12.2,12.76-26.44,18.55-43.61,17.73-16.04-.82-29.75-7.35-40.74-19.42-11.02-12.07-16.45-26.67-16.17-43.36.26-16.89,6.1-30.77,17.78-42.48,11.79-11.79,25.67-17.5,42.43-17.5s29.57,5.87,40.61,17.45c11.56,12.12,17.3,25.93,17.58,42.25.26,17.65-5.59,32.47-17.86,45.33Z"/>
    <path d="M925.68,219.77c-6.7-6.98-9.96-13.63-9.96-20.31V22.63h-30.11v172.74c0,36.5,23.79,59.17,62.08,59.17h68.2v-28.94h-68.2c-10.71,0-18.11-1.96-22.01-5.84Z"/>
    <path d="M1174.79,104.81c-16.48-17.65-37.15-27.08-61.5-28.01-24.85-.9-46.63,7.89-64.6,26.16-17.94,17.94-27.03,39.82-27.03,65.03s8.38,45.48,24.93,62.93c16.66,17.58,37.36,26.8,61.47,27.42,1.18.03,2.33.05,3.49.05,23.34,0,43.89-8.71,61.11-25.93,18.14-18.14,27.34-39.92,27.34-64.75s-8.48-45.28-25.21-62.91ZM1152.31,211.07l-.03.03c-11.94,12.76-26.21,18.55-43.66,17.71-16.14-.54-29.44-6.79-40.69-19.12-10.99-12.09-16.45-26.67-16.17-43.36.28-16.89,6.1-30.8,17.81-42.48,11.79-11.79,25.29-17.53,41.31-17.53h1.1c15.94,0,29.13,5.71,40.33,17.45,11.48,12.04,17.32,25.88,17.86,42.25.28,17.48-5.56,32.21-17.86,45.05Z"/>
  </g>
  <path d="M128.03,170.92c2.31,3.6,1.26,8.39-2.34,10.69,0,0-24.85,19.33-43.89,12.41-21-7.64-25.65-37.72-25.65-37.72-1.38-4.05.79-8.44,4.83-9.82,4.05-1.38,8.44.79,9.82,4.83,0,.02,5.75,15.51,19.12,20.38,13.68,4.98,27.74-3.31,27.75-3.31,3.58-2.04,8.13-.92,10.35,2.54ZM236.46,131.91l-35.38,97.21c-4.18,11.49-12.59,20.67-23.67,25.84-6.16,2.87-12.73,4.32-19.32,4.32-5.28,0-10.58-.93-15.68-2.78l-34.01-12.38h0s-83.45-30.38-83.45-30.38c-9.5-3.46-17.09-10.41-21.37-19.58-4.27-9.17-4.72-19.45-1.26-28.96L44.86,48.28c4.05-11.13,13.33-19.5,24.83-22.4,8.66-2.18,17.68-1,25.35,3.1,5.01-9.33,12.12-17.07,20.62-22.25,11.58-7.05,24.31-8.63,35.85-4.43,11.54,4.2,20.28,13.59,24.62,26.44,3.46,10.25,3.71,21.76.87,33,18.51,2.83,32.1,11.49,32.1,11.49,11.49,4.18,20.67,12.59,25.83,23.67,5.17,11.08,5.71,23.52,1.53,35.01ZM107.69,40.24l21.43,24.32,30.92-2.94c3.23-9.44,3.48-19.22.63-27.66-2.72-8.06-7.95-13.85-14.74-16.32-6.79-2.47-14.52-1.39-21.78,3.03-7.05,4.29-12.8,11.18-16.46,19.57ZM124.49,81.4l-3.36-1.21c-1.61-.42-3.24-.62-4.85-.62-8,0-15.52,4.94-18.41,12.88-1.79,4.91-1.55,10.22.65,14.96,2.21,4.74,6.13,8.33,11.04,10.12,10.13,3.69,21.39-1.56,25.08-11.69,3.5-9.61-1.04-20.21-10.16-24.43ZM145.77,217.41l41.6-114.29c2.28-6.26,1.21-13.14-2.86-18.41-1.84-2.38-9.2-8.14-17-7.4l-21.37,2.04c6.06,9.17,7.89,20.97,3.86,32.07-5.3,14.56-19.1,23.62-33.76,23.62-4.07,0-8.2-.7-12.24-2.17-9.01-3.28-16.2-9.87-20.25-18.56-4.05-8.69-4.48-18.43-1.2-27.44,4.19-11.5,13.68-19.55,24.71-22.43l-16.54-18.77c-3.5-2.98-7.78-4.55-12.23-4.55-1.59,0-3.2.2-4.8.6-6.33,1.59-11.24,6.02-13.47,12.15l-42.55,116.91c-4.06,11.16,1.71,23.55,12.88,27.61l87.64,31.9c5.41,1.97,11.26,1.71,16.47-.72,5.22-2.43,9.17-6.75,11.14-12.16ZM220.13,103.8c-3.25-6.96-8.96-12.26-16.1-15.01,1.45,6.51,1.05,13.4-1.32,19.91l-41.6,114.29c-2.67,7.35-7.45,13.52-13.71,17.94l.58.21c7.39,2.69,15.39,2.34,22.52-.99,7.13-3.33,12.54-9.23,15.23-16.62l35.38-97.21c2.69-7.39,2.34-15.39-.98-22.52Z"/>
</svg>