<?xml version="1.0" encoding="UTF-8"?>
<svg id="Layer_1" data-name="Layer 1" xmlns="http://www.w3.org/2000/svg" viewBox="0 0 600 650.22">
  <path d="M321.08,428.65c5.79,9.03,3.16,21.03-5.87,26.82,0,0-62.33,48.49-110.07,31.11-52.65-19.16-64.33-94.61-64.33-94.61-3.45-10.15,1.98-21.18,12.13-24.63,10.15-3.45,21.18,1.98,24.63,12.13.01.05,14.42,38.9,47.96,51.11,34.31,12.49,69.58-8.3,69.58-8.3,8.97-5.12,20.39-2.32,25.97,6.38ZM593.02,330.81l-88.72,243.79c-10.48,28.82-31.57,51.83-59.36,64.79-15.44,7.2-31.92,10.82-48.46,10.82-13.24,0-26.52-2.32-39.33-6.98l-85.31-31.04h0s-209.29-76.18-209.29-76.18c-23.84-8.68-42.87-26.12-53.59-49.11-10.72-22.99-11.84-48.78-3.17-72.62L112.5,121.08c10.16-27.91,33.43-48.91,62.26-56.17,21.71-5.47,44.33-2.52,63.58,7.77,12.58-23.4,30.4-42.81,51.73-55.8,29.05-17.69,60.97-21.63,89.91-11.1,28.93,10.53,50.86,34.07,61.74,66.3,8.69,25.71,9.3,54.57,2.17,82.75,46.41,7.09,80.49,28.82,80.5,28.82,28.82,10.49,51.83,31.57,64.79,59.36,12.96,27.8,14.32,58.97,3.83,87.79ZM270.07,100.93l53.74,60.99,77.53-7.39c8.11-23.67,8.74-48.21,1.59-69.36-6.82-20.2-19.94-34.74-36.96-40.93-17.03-6.19-36.41-3.49-54.62,7.6-17.67,10.76-32.1,28.04-41.29,49.08ZM312.21,204.16l-8.42-3.03c-4.05-1.04-8.13-1.56-12.16-1.56-20.05,0-38.91,12.39-46.16,32.29-4.48,12.32-3.9,25.64,1.64,37.52,5.54,11.88,15.37,20.89,27.69,25.37,25.41,9.25,53.63-3.9,62.89-29.33,8.77-24.1-2.61-50.67-25.47-61.26ZM365.58,545.25l104.33-286.63c5.71-15.69,3.03-32.95-7.18-46.17-4.61-5.97-23.08-20.42-42.64-18.57l-53.6,5.11c15.2,23,19.8,52.6,9.67,80.43-13.29,36.51-47.89,59.23-84.67,59.23-10.19,0-20.56-1.75-30.69-5.43-22.59-8.22-40.63-24.75-50.79-46.54-10.16-21.79-11.23-46.23-3.01-68.82,10.5-28.84,34.3-49.03,61.96-56.26l-41.48-47.08c-8.77-7.48-19.5-11.41-30.68-11.41-3.98,0-8.02.5-12.04,1.51-15.88,4-28.2,15.1-33.79,30.47L44.25,428.29c-10.19,28,4.3,59.06,32.29,69.25l219.79,80c13.56,4.94,28.24,4.3,41.31-1.8,13.08-6.1,23-16.93,27.94-30.49ZM552.08,260.32c-8.14-17.45-22.46-30.74-40.38-37.65,3.64,16.33,2.63,33.6-3.32,49.94l-104.33,286.63c-6.7,18.42-18.69,33.92-34.38,44.98l1.46.53c18.54,6.74,38.61,5.87,56.49-2.47,17.88-8.34,31.45-23.15,38.2-41.69l88.72-243.8c6.75-18.55,5.87-38.61-2.47-56.49Z"/>
</svg>