<?xml version="1.0" encoding="UTF-8"?>
<svg id="Layer_1" data-name="Layer 1" xmlns="http://www.w3.org/2000/svg" viewBox="0 0 600 657.1">
  <path d="M200.1,486.24c-52.03-21.81-56.73-86.16-56.73-86.16-3.56-10.19,1.82-21.34,12.01-24.9,10.19-3.56,21.34,1.82,24.9,12.01.03.03,7.02,14.75,11.3,20.91,8.26,11.85,20.46,24.14,37.39,30.15,16.93,6.01,34.15,4.16,48.04.17,6.73-1.91,21.37-8.82,21.9-9.07v-.02s.05,0,.05,0c8.99-5.23,20.51-2.5,26.2,6.22,5.9,9.04,3.35,21.15-5.69,27.05,0,0-65.83,46.09-119.37,23.64ZM593.52,326.91l-97.1,261.99c-9.81,26.47-29.4,47.42-55.15,58.98-13.69,6.14-28.19,9.22-42.73,9.22-12.82,0-25.67-2.4-37.99-7.21l-75.55-29.47-221.35-78.56c-49.69-17.64-75.77-72.41-58.13-122.1L110.59,123.7c10-28.19,33.27-49.51,62.24-57.05,21.81-5.68,44.6-2.9,64.06,7.3C266.96,17.14,326.7-13.1,378.96,5.46c54.14,19.22,81.51,84.13,65.61,149.55,8.54,1.82,16.73,4.91,24.35,9.1l69.51,31.26c49.91,22.45,74.11,80.22,55.09,131.54ZM269.98,99.97c21.91,20.09,43.56,42.09,61.05,65.51,23.76-5.27,48.24-8.14,70.7-10.46,16.13-48.41.03-97.74-36.55-110.72-34.7-12.32-75.71,12.36-95.2,55.67ZM313.4,213.31c-27.43,9.61-49.76,24.59-58.54,49.15-6.37,17.85-4.47,34.03,5.35,45.58,8.11,9.53,20.33,14.13,31.94,11.99,13.99-2.58,25.46-14.63,32.3-33.94,8.36-23.58,2.58-48.35-11.05-72.78ZM77.43,503.03l207.57,73.67.17-.44,14.19,5.53h0c13.69,4.86,28.45,4.1,41.58-2.15,13.12-6.25,23.02-17.23,27.89-30.93l102.72-289.43c5.62-15.84,2.78-33.19-7.6-46.42-10.5-13.38-26.22-20.05-43.09-18.36l-4.42.45c-19.35,1.95-40.99,4.14-62.1,7.97,15.22,30.95,20.77,63.63,8.96,96.93-11.8,33.3-35.01,55.43-63.69,60.71-26.03,4.79-53.17-5.09-70.79-25.81-19.49-22.91-24.15-54.31-12.77-86.16,12.71-35.59,40.05-56.93,72.79-70.3-18.13-21.79-40.32-42.66-61.68-61.41-8.95-7.85-19.98-11.98-31.46-11.98-4.13,0-8.32.53-12.49,1.62-15.96,4.15-28.27,15.43-33.78,30.95L44.36,433.56c-10.03,28.27,4.81,59.43,33.07,69.47ZM521.53,232.97l-6.89-3.1c2.1,14.27.77,29.06-4.25,43.2l-102.71,289.43c-6.93,19.53-19.69,35.92-36.58,47.27l4.43,1.73c15.93,6.21,33.28,5.77,48.86-1.22,15.59-6.99,27.44-19.67,33.38-35.69l97.1-262c11.52-31.06-3.13-66.03-33.34-79.61Z"/>
</svg>