<?xml version="1.0" encoding="UTF-8"?>
<svg id="Layer_1" data-name="Layer 1" xmlns="http://www.w3.org/2000/svg" viewBox="0 0 1200 274.09">
  <defs>
    <style>
      .cls-1 {
        fill: #f1f2f2;
      }
    </style>
  </defs>
  <g>
    <path class="cls-1" d="M457.15,184.97V42.39h-29.01v76.55c-15.59-14.71-34.45-22.54-56.18-23.32-24.43-.88-45.83,7.76-63.48,25.71-17.63,17.65-26.57,39.16-26.57,63.91s8.23,44.7,24.5,61.85c16.37,17.27,36.72,26.34,60.41,26.94,1.13.03,2.24.05,3.37.05,22.76,0,43.16-8.56,60.64-25.46,18.06-17.78,26.92-39.21,26.32-63.66ZM410.32,227.58l-.05.03c-11.73,12.54-25.76,18.23-42.89,17.4-15.89-.53-28.96-6.67-39.99-18.79-11-12.09-16.47-26.42-16.19-42.61.28-16.6,5.99-30.27,17.5-41.75,11.43-11.43,25.08-17.22,40.64-17.22h1.03c15.86,0,28.91,5.62,39.91,17.15,11.36,11.91,17.02,25.51,17.27,41.6.55,17.02-5.11,31.48-17.25,44.19Z"/>
    <path class="cls-1" d="M660.32,179.81c0-21.2-8.13-40.57-24.23-57.57-16.54-17.1-36.44-26.54-59.15-28.05h-.03c-25.03-1.46-47.29,7.18-66.1,25.71-18.46,18.13-27.5,40.24-26.89,65.7.3,23.8,9.52,44.82,27.47,62.48,17.45,16.85,37.87,25.38,60.74,25.38h1.18c18.74-.3,35.25-5.67,50.49-16.42,13.67-9.64,23.82-22.51,30.29-38.35h-32.64c-10.7,16.9-26.29,25.23-47.39,25.46-15.44.33-28.78-4.58-40.69-14.81-10.35-8.91-16.72-20.32-19.04-34.02h145.98v-15.51ZM514.8,167.75c3.42-12.82,9.87-22.92,19.64-30.77,11.18-9.02,24.28-13.42,38.75-13.2,14.78.28,27.55,4.89,38,13.7,9.32,7.88,15.71,18.06,19.09,30.27h-115.48Z"/>
    <path class="cls-1" d="M834.36,122.27c-16.47-17.35-36.99-26.59-60.99-27.5-1.16-.05-2.32-.05-3.45-.05-23.37,0-43.67,8.54-60.31,25.48-17.63,17.63-26.57,39.13-26.57,63.91s8.34,44.5,24.78,61.85c16.27,17.15,36.49,26.32,60.14,27.22,1.08.03,2.14.05,3.22.05,22.34,0,41.95-7.93,58.37-23.62v19.84h28.73v-85.49c.91-23.57-7.15-44.32-23.92-61.7ZM811.44,226.72h-.03c-11.99,12.54-25.99,18.23-42.86,17.43-15.76-.81-29.24-7.23-40.04-19.09-10.83-11.86-16.17-26.21-15.89-42.61.25-16.6,5.99-30.24,17.48-41.75,11.58-11.58,25.23-17.2,41.7-17.2s29.06,5.77,39.91,17.15c11.36,11.91,17,25.48,17.28,41.53.25,17.35-5.49,31.91-17.55,44.55Z"/>
    <path class="cls-1" d="M930.41,235.27c-6.59-6.86-9.79-13.4-9.79-19.96V41.53h-29.59v169.77c0,35.87,23.38,58.15,61.01,58.15h67.03v-28.45h-67.03c-10.52,0-17.8-1.93-21.63-5.74Z"/>
    <path class="cls-1" d="M1175.22,122.29c-16.19-17.35-36.51-26.62-60.44-27.52-24.43-.88-45.83,7.76-63.48,25.71-17.63,17.63-26.57,39.13-26.57,63.91s8.23,44.7,24.5,61.85c16.37,17.27,36.72,26.34,60.41,26.94,1.16.03,2.29.05,3.43.05,22.94,0,43.14-8.56,60.06-25.48,17.83-17.83,26.87-39.23,26.87-63.64s-8.34-44.5-24.78-61.82ZM1153.14,226.72l-.03.03c-11.73,12.54-25.76,18.23-42.91,17.4-15.86-.53-28.93-6.67-39.99-18.79-10.8-11.89-16.17-26.21-15.89-42.61.28-16.6,5.99-30.27,17.5-41.75,11.58-11.58,24.85-17.22,40.59-17.22h1.08c15.66,0,28.63,5.62,39.64,17.15,11.28,11.84,17.02,25.43,17.55,41.53.28,17.17-5.46,31.65-17.55,44.27Z"/>
  </g>
  <path class="cls-1" d="M83.46,202.82c-21.7-9.1-23.66-35.94-23.66-35.94-1.48-4.25.76-8.9,5.01-10.38,4.25-1.48,8.9.76,10.39,5.01.01.01,2.93,6.15,4.72,8.72,3.44,4.94,8.54,10.07,15.6,12.58,7.06,2.51,14.25,1.73,20.04.07,2.81-.8,8.92-3.68,9.14-3.78h0s.02,0,.02,0c3.75-2.18,8.56-1.04,10.93,2.59,2.46,3.77,1.4,8.82-2.37,11.28,0,0-27.46,19.23-49.79,9.86ZM247.57,136.36l-40.5,109.28c-4.09,11.04-12.26,19.78-23,24.6-5.71,2.56-11.76,3.85-17.82,3.85-5.35,0-10.71-1-15.85-3.01l-31.51-12.29-92.33-32.77c-20.73-7.36-31.6-30.2-24.25-50.93L46.13,51.6c4.17-11.76,13.88-20.65,25.96-23.8,9.1-2.37,18.6-1.21,26.72,3.04C111.35,7.15,136.27-5.46,158.07,2.28c22.58,8.02,34,35.09,27.37,62.38,3.56.76,6.98,2.05,10.16,3.8l28.99,13.04c20.82,9.36,30.91,33.46,22.98,54.87ZM112.61,41.7c9.14,8.38,18.17,17.56,25.47,27.33,9.91-2.2,20.12-3.39,29.49-4.36,6.73-20.19.01-40.77-15.25-46.18-14.47-5.14-31.58,5.16-39.71,23.22ZM130.72,88.98c-11.44,4.01-20.76,10.26-24.42,20.5-2.66,7.44-1.87,14.2,2.23,19.01,3.38,3.98,8.48,5.89,13.32,5,5.83-1.07,10.62-6.1,13.47-14.16,3.49-9.83,1.07-20.17-4.61-30.36ZM32.3,209.82l86.58,30.73.07-.18,5.92,2.31h0c5.71,2.03,11.87,1.71,17.34-.9,5.47-2.61,9.6-7.19,11.63-12.9l42.84-120.73c2.34-6.61,1.16-13.85-3.17-19.36-4.38-5.58-10.94-8.36-17.97-7.66l-1.84.19c-8.07.81-17.1,1.73-25.9,3.32,6.35,12.91,8.66,26.54,3.74,40.43-4.92,13.89-14.61,23.12-26.57,25.32-10.86,2-22.18-2.12-29.53-10.76-8.13-9.56-10.07-22.65-5.33-35.94,5.3-14.84,16.7-23.75,30.36-29.32-7.56-9.09-16.82-17.79-25.73-25.61-3.73-3.28-8.33-5-13.12-5-1.72,0-3.47.22-5.21.68-6.66,1.73-11.79,6.44-14.09,12.91l-43.83,123.5c-4.19,11.79,2,24.79,13.8,28.98ZM217.54,97.17l-2.87-1.29c.88,5.95.32,12.12-1.77,18.02l-42.84,120.73c-2.89,8.15-8.22,14.98-15.26,19.72l1.85.72c6.64,2.59,13.88,2.41,20.38-.51,6.5-2.92,11.45-8.21,13.92-14.89l40.5-109.29c4.8-12.96-1.31-27.54-13.91-33.21Z"/>
</svg>